<svg aria-hidden="true" style="position: absolute; width: 0; height: 0; overflow: hidden;" version="1.1" xmlns="http://www.w3.org/2000/svg" xmlns:xlink="http://www.w3.org/1999/xlink">
<defs>
<symbol id="instagram" viewBox="0 0 32 32">
<path d="M20 16c0 2.209-1.791 4-4 4s-4-1.791-4-4c0-2.209 1.791-4 4-4v0c2.208 0.003 3.997 1.792 4 4v0zM28.5 10.5v11c-0.005 3.864-3.136 6.995-7 7h-11c-3.864-0.005-6.995-3.136-7-7v-11c0.005-3.864 3.136-6.995 7-7h11c3.864 0.005 6.995 3.136 7 7v0zM22 16c0-3.314-2.686-6-6-6s-6 2.686-6 6c0 3.314 2.686 6 6 6v0c3.312-0.004 5.996-2.688 6-6v-0zM24 9.5c0-0.828-0.672-1.5-1.5-1.5s-1.5 0.672-1.5 1.5c0 0.828 0.672 1.5 1.5 1.5v0c0.828 0 1.5-0.672 1.5-1.5v0z"></path>
</symbol>
<symbol id="tiktok" viewBox="0 0 32 32">
<path d="M25.762 7.416c-0.236-0.122-0.43-0.237-0.616-0.36l0.026 0.016c-0.573-0.382-1.070-0.807-1.512-1.283l-0.005-0.005c-1.131-1.294-1.554-2.607-1.709-3.527h0.006c-0.13-0.763-0.076-1.257-0.068-1.257h-5.152v19.924c0 0.267 0 0.532-0.011 0.793 0 0.032-0.003 0.063-0.005 0.098 0 0.014 0 0.029-0.003 0.044 0 0.004 0 0.008 0 0.011-0.117 1.49-0.964 2.76-2.18 3.461l-0.021 0.011c-0.611 0.354-1.344 0.563-2.126 0.563-0.002 0-0.004 0-0.006 0h0c-2.401 0-4.346-1.957-4.346-4.375s1.946-4.375 4.346-4.375c0.001 0 0.003 0 0.004 0 0.477 0 0.936 0.078 1.365 0.221l-0.030-0.009 0.006-5.246c-0.368-0.050-0.794-0.079-1.226-0.079-2.348 0-4.498 0.845-6.163 2.248l0.014-0.012c-0.877 0.765-1.612 1.664-2.18 2.67l-0.026 0.050c-0.217 0.375-1.038 1.882-1.138 4.328-0.063 1.388 0.354 2.826 0.553 3.421v0.012c0.125 0.35 0.609 1.544 1.399 2.551 0.641 0.809 1.376 1.504 2.199 2.084l0.033 0.022v-0.012l0.013 0.012c2.494 1.695 5.26 1.584 5.26 1.584 0.479-0.019 2.082 0 3.904-0.863 2.020-0.957 3.17-2.383 3.17-2.383 0.708-0.817 1.291-1.767 1.704-2.804l0.023-0.067c0.466-1.226 0.622-2.696 0.622-3.283v-10.57c0.063 0.037 0.895 0.588 0.895 0.588s1.199 0.769 3.071 1.269c1.343 0.356 3.151 0.431 3.151 0.431v-5.115c-0.634 0.069-1.921-0.131-3.238-0.788z"></path>
</symbol>
<symbol id="arrow" viewBox="0 0 24 24">
<path d="M8.578 16.594l4.594-4.594-4.594-4.594 1.406-1.406 6 6-6 6z"></path>
</symbol>
<symbol id="facebook" viewBox="0 0 32 32">
<path d="M19 6h5v-6h-5c-3.86 0-7 3.14-7 7v3h-4v6h4v16h6v-16h5l1-6h-6v-3c0-0.542 0.458-1 1-1z"></path>
</symbol>
<symbol id="twitter" viewBox="0 0 32 32">
<path d="M32 7.075c-1.175 0.525-2.444 0.875-3.769 1.031 1.356-0.813 2.394-2.1 2.887-3.631-1.269 0.75-2.675 1.3-4.169 1.594-1.2-1.275-2.906-2.069-4.794-2.069-3.625 0-6.563 2.938-6.563 6.563 0 0.512 0.056 1.012 0.169 1.494-5.456-0.275-10.294-2.888-13.531-6.862-0.563 0.969-0.887 2.1-0.887 3.3 0 2.275 1.156 4.287 2.919 5.463-1.075-0.031-2.087-0.331-2.975-0.819 0 0.025 0 0.056 0 0.081 0 3.181 2.263 5.838 5.269 6.437-0.55 0.15-1.131 0.231-1.731 0.231-0.425 0-0.831-0.044-1.237-0.119 0.838 2.606 3.263 4.506 6.131 4.563-2.25 1.762-5.075 2.813-8.156 2.813-0.531 0-1.050-0.031-1.569-0.094 2.913 1.869 6.362 2.95 10.069 2.95 12.075 0 18.681-10.006 18.681-18.681 0-0.287-0.006-0.569-0.019-0.85 1.281-0.919 2.394-2.075 3.275-3.394z"></path>
</symbol>
<symbol id="youtube" viewBox="0 0 32 32">
<path d="M31.681 9.6c0 0-0.313-2.206-1.275-3.175-1.219-1.275-2.581-1.281-3.206-1.356-4.475-0.325-11.194-0.325-11.194-0.325h-0.012c0 0-6.719 0-11.194 0.325-0.625 0.075-1.987 0.081-3.206 1.356-0.963 0.969-1.269 3.175-1.269 3.175s-0.319 2.588-0.319 5.181v2.425c0 2.587 0.319 5.181 0.319 5.181s0.313 2.206 1.269 3.175c1.219 1.275 2.819 1.231 3.531 1.369 2.563 0.244 10.881 0.319 10.881 0.319s6.725-0.012 11.2-0.331c0.625-0.075 1.988-0.081 3.206-1.356 0.962-0.969 1.275-3.175 1.275-3.175s0.319-2.587 0.319-5.181v-2.425c-0.006-2.588-0.325-5.181-0.325-5.181zM12.694 20.15v-8.994l8.644 4.513-8.644 4.481z"></path>
</symbol>
<symbol id="email" viewBox="0 0 32 32">
<path d="M29 4h-26c-1.657 0-3 1.343-3 3v18c0 1.656 1.343 3 3 3h26c1.657 0 3-1.344 3-3v-18c0-1.657-1.343-3-3-3zM2.741 25.99l-0.731-0.732 8.249-8.248 0.731 0.732-8.249 8.248zM29.259 25.99l-8.249-8.248 0.731-0.732 8.249 8.248-0.731 0.732zM17 19.325v0.675h-2v-0.675l-12.997-12.050 1.272-1.272 12.725 11.798 12.725-11.798 1.272 1.272-12.997 12.050z"></path>
</symbol>
<symbol id="download" viewBox="0 0 32 32">
<path d="M18 8l-4-4h-14v26h32v-22h-14zM16 27l-7-7h5v-8h4v8h5l-7 7z"></path>
</symbol>
<symbol id="phone" viewBox="0 0 32 32">
<path d="M22 20c-2 2-2 4-4 4s-4-2-6-4-4-4-4-6 2-2 4-4-4-8-6-8-6 6-6 6c0 4 4.109 12.109 8 16s12 8 16 8c0 0 6-4 6-6s-6-8-8-6z"></path>
</symbol>
<symbol id="cloud" viewBox="0 0 20 20">
<path d="M16.88 9.1c1.795 0.419 3.111 2.006 3.111 3.9 0 2.206-1.786 3.995-3.991 4h-11c-0.001 0-0.003 0-0.005 0-2.761 0-5-2.239-5-5 0-2.409 1.704-4.421 3.973-4.894l0.032-0.006v-0.1c0-0.001 0-0.002 0-0.004 0-1.657 1.343-3 3-3 0.56 0 1.085 0.154 1.534 0.421l-0.014-0.008c0.899-0.889 2.136-1.438 3.5-1.438 2.75 0 4.98 2.23 4.98 4.98 0 0.017-0 0.033-0 0.050l0-0.003c0 0.38-0.040 0.74-0.12 1.1zM11 11h3l-4-4-4 4h3v3h2v-3z"></path>
</symbol>
<symbol id="user" viewBox="0 0 32 32">
<path d="M18 22.082v-1.649c2.203-1.241 4-4.337 4-7.432 0-4.971 0-9-6-9s-6 4.029-6 9c0 3.096 1.797 6.191 4 7.432v1.649c-6.784 0.555-12 3.888-12 7.918h28c0-4.030-5.216-7.364-12-7.918z"></path>
</symbol>
<symbol id="cancel" viewBox="0 0 32 32">
<path d="M16 0c-8.837 0-16 7.163-16 16s7.163 16 16 16 16-7.163 16-16-7.163-16-16-16zM16 29c-7.18 0-13-5.82-13-13s5.82-13 13-13 13 5.82 13 13-5.82 13-13 13z"></path>
<path d="M21 8l-5 5-5-5-3 3 5 5-5 5 3 3 5-5 5 5 3-3-5-5 5-5z"></path>
</symbol>
<symbol id="mail" viewBox="0 0 32 32">
<path d="M11.293 19l-3.293-2.8v-8.198c0-0.558 0.448-1.002 1-1.002h15c0.545 0 1 0.449 1 1.002v8.198l-3.333 2.8h-10.374zM12.469 20l1.783 1.516h4.42l1.805-1.516h-8.007zM22.185 20.127l-2.185 1.873 5.923 5.077-0.808 0.808-5.996-5.139-5.223 0.023-0.021-0.018-5.99 5.135-0.808-0.808 5.923-5.077-2.185-1.873-3.815-3.227v-5.54l-3 2.64v14.006c0 1.101 0.89 1.994 2.004 1.994h20.993c1.107 0 2.004-0.895 2.004-1.994v-14.006l-3-2.64v5.54l-3.815 3.227zM19.909 6l-3.409-3-3.409 3h6.818zM10 10v1h13v-1h-13zM10 13v1h13v-1h-13zM10 16v1h13v-1h-13z"></path>
</symbol>
<symbol id="folder" viewBox="0 0 32 32">
<path d="M26 30l6-16h-26l-6 16zM4 12l-4 18v-26h9l4 4h13v4z"></path>
</symbol>
<symbol id="password" viewBox="0 0 32 32">
<path d="M29 32h-26c-0.552 0-1-0.447-1-1v-16c0-0.553 0.448-1 1-1h3v-4c0-5.523 4.477-10 10-10s10 4.477 10 10v4h3c0.553 0 1 0.447 1 1v16c0 0.553-0.447 1-1 1zM22 9.5c0-3.038-2.687-5.5-6-5.5s-6 2.462-6 5.5v4.5h12v-4.5z"></path>
</symbol>
<symbol id="checkbox-unchecked" viewBox="0 0 32 32">
<path d="M28 0h-24c-2.2 0-4 1.8-4 4v24c0 2.2 1.8 4 4 4h24c2.2 0 4-1.8 4-4v-24c0-2.2-1.8-4-4-4zM28 28h-24v-24h24v24z"></path>
</symbol>
<symbol id="checkbox-checked" viewBox="0 0 32 32">
<path d="M28 0h-24c-2.2 0-4 1.8-4 4v24c0 2.2 1.8 4 4 4h24c2.2 0 4-1.8 4-4v-24c0-2.2-1.8-4-4-4zM14 24.828l-7.414-7.414 2.828-2.828 4.586 4.586 9.586-9.586 2.828 2.828-12.414 12.414z"></path>
</symbol>
<symbol id="add_photo" viewBox="0 0 24 24">
<path d="M5.016 18.984h12l-4.031-4.969-3 3.984-1.969-3zM15.984 11.016h3v7.969q0 0.797-0.586 1.406t-1.383 0.609h-12q-0.797 0-1.406-0.609t-0.609-1.406v-12q0-0.797 0.609-1.383t1.406-0.586h7.969v3h3v3zM18.984 6.984v3h-1.969v-3h-3v-1.969h3v-3h1.969v3h3v1.969h-3z"></path>
</symbol>
<symbol id="search" viewBox="0 0 32 32">
<path d="M29.156 29.961l-0.709 0.709c-0.785 0.784-2.055 0.784-2.838 0l-5.676-5.674c-0.656-0.658-0.729-1.644-0.281-2.412l-3.104-3.102c-1.669 1.238-3.728 1.979-5.965 1.979-5.54 0-10.031-4.491-10.031-10.031s4.491-10.032 10.031-10.032c5.541 0 10.031 4.491 10.031 10.032 0 2.579-0.98 4.923-2.58 6.7l3.035 3.035c0.768-0.447 1.754-0.375 2.41 0.283l5.676 5.674c0.784 0.785 0.784 2.056 0.001 2.839zM18.088 11.389c0-4.155-3.369-7.523-7.524-7.523s-7.524 3.367-7.524 7.523 3.368 7.523 7.523 7.523 7.525-3.368 7.525-7.523z"></path>
</symbol>
<symbol id="add" viewBox="0 0 32 32">
<path d="M26 24h-3v-1h3v-3h1v3h3v1h-3v3h-1v-3zM21.022 27h-19.029c-1.094 0-1.993-0.891-1.993-1.991v-11.009h29v3.498c-0.77-0.321-1.614-0.498-2.5-0.498-3.59 0-6.5 2.91-6.5 6.5 0 1.289 0.375 2.49 1.022 3.5v0 0zM0 13v-6.009c0-1.101 0.897-1.991 2.003-1.991h10.997l2 4h11.994c1.109 0 2.006 0.893 2.006 1.995v2.005h-29zM26.5 29c3.038 0 5.5-2.462 5.5-5.5s-2.462-5.5-5.5-5.5c-3.038 0-5.5 2.462-5.5 5.5s2.462 5.5 5.5 5.5v0z"></path>
</symbol>
<symbol id="plus" viewBox="0 0 32 32">
<path d="M31 12h-11v-11c0-0.552-0.448-1-1-1h-6c-0.552 0-1 0.448-1 1v11h-11c-0.552 0-1 0.448-1 1v6c0 0.552 0.448 1 1 1h11v11c0 0.552 0.448 1 1 1h6c0.552 0 1-0.448 1-1v-11h11c0.552 0 1-0.448 1-1v-6c0-0.552-0.448-1-1-1z"></path>
</symbol>
</defs>
</svg>


